<svg xmlns="http://www.w3.org/2000/svg" width="252.333" height="50" viewBox="47.5 8.667 252.333 50"><g fill="#FFE36C"><path d="M110.502 16.542h3.213l9.181 23.28h-3.869l-2.459-6.328h-8.984l-2.426 6.328h-3.902l9.246-23.28zm5.345 14.229l-3.738-10-3.869 10h7.607zM131.486 40.149c-1.159 0-2.229-.235-3.213-.705a8.03 8.03 0 0 1-2.557-1.918 8.876 8.876 0 0 1-1.689-2.837c-.405-1.082-.606-2.246-.606-3.492 0-1.202.191-2.333.574-3.394A8.984 8.984 0 0 1 125.601 25a7.756 7.756 0 0 1 2.427-1.918c.929-.47 1.951-.705 3.065-.705 1.377 0 2.59.333 3.64 1 1.049.667 1.869 1.514 2.459 2.541V15.886h3.607v19.673c0 .416.071.711.213.886s.399.273.771.295v3.082c-.372.065-.672.109-.901.131s-.421.033-.574.033c-.722 0-1.312-.186-1.771-.558a1.97 1.97 0 0 1-.754-1.442l-.065-1.279a6.848 6.848 0 0 1-2.59 2.525c-1.095.611-2.309.917-3.642.917zm.886-3.082c.524 0 1.049-.088 1.574-.263a5.557 5.557 0 0 0 1.443-.722A5.058 5.058 0 0 0 136.52 35c.316-.415.541-.863.672-1.344v-4.492c-.197-.546-.475-1.049-.836-1.508s-.771-.853-1.229-1.18a5.624 5.624 0 0 0-1.459-.754 4.803 4.803 0 0 0-1.558-.262c-.721 0-1.383.164-1.984.492a5.112 5.112 0 0 0-1.557 1.312 6.452 6.452 0 0 0-1.033 1.869 6.363 6.363 0 0 0-.377 2.164c0 .787.136 1.53.41 2.229.273.7.65 1.312 1.131 1.836.48.524 1.033.939 1.656 1.246a4.505 4.505 0 0 0 2.016.459zM154.7 25.788c-1.399.044-2.64.366-3.722.967-1.082.602-1.852 1.459-2.311 2.574v10.492h-3.607V22.673h3.344v3.836c.59-1.181 1.361-2.125 2.312-2.836.95-.71 1.972-1.098 3.065-1.164h.541c.142 0 .268.012.377.033v3.246zM156.995 19.853v-3.967h3.606v3.967h-3.606zm0 19.968V22.673h3.606v17.148h-3.606zM169.159 40.149a6.39 6.39 0 0 1-2.312-.41 5.568 5.568 0 0 1-1.836-1.131 5.27 5.27 0 0 1-1.214-1.705 5.135 5.135 0 0 1-.442-2.132c0-.808.175-1.541.524-2.196s.847-1.224 1.492-1.705c.645-.48 1.41-.853 2.295-1.115.886-.262 1.863-.394 2.935-.394.809 0 1.606.071 2.394.213.787.143 1.497.333 2.132.574v-1.181c0-1.268-.361-2.257-1.082-2.967-.722-.71-1.76-1.065-3.115-1.065a7.51 7.51 0 0 0-2.705.508c-.885.339-1.798.826-2.737 1.459l-1.115-2.295c2.208-1.486 4.503-2.229 6.886-2.229 2.36 0 4.196.602 5.508 1.803 1.312 1.203 1.968 2.93 1.968 5.181v6.197c0 .766.316 1.159.951 1.181v3.082c-.351.065-.651.109-.902.131s-.497.033-.737.033c-.7 0-1.241-.175-1.623-.524a2.24 2.24 0 0 1-.705-1.345l-.099-1.082c-.766 1.006-1.71 1.776-2.836 2.312s-2.336.802-3.625.802zm.984-2.656c.874 0 1.699-.158 2.476-.476.775-.316 1.383-.759 1.82-1.327.459-.394.688-.809.688-1.246v-2.263a11.025 11.025 0 0 0-1.951-.558 10.77 10.77 0 0 0-2.017-.197c-1.29 0-2.345.279-3.164.836-.819.557-1.229 1.295-1.229 2.213 0 .853.316 1.569.951 2.147.634.582 1.442.871 2.426.871zM192.177 38.936c-.459.219-1.093.465-1.901.738s-1.672.41-2.59.41a5.524 5.524 0 0 1-1.607-.229 3.925 3.925 0 0 1-1.327-.689c-.383-.306-.684-.704-.902-1.196s-.327-1.087-.327-1.787V25.46h-2.263v-2.787h2.263v-5.64h3.606v5.64h3.737v2.787h-3.737v9.574c.043.612.234 1.055.573 1.328s.76.409 1.263.409.983-.087 1.442-.262.798-.316 1.017-.427l.753 2.854zM194.341 19.853v-3.967h3.606v3.967h-3.606zm0 19.968V22.673h3.606v17.148h-3.606zM200.832 31.231c0-1.202.208-2.339.623-3.41a8.429 8.429 0 0 1 1.787-2.82 8.45 8.45 0 0 1 2.804-1.918c1.093-.47 2.316-.705 3.672-.705 1.771 0 3.296.388 4.574 1.164 1.279.776 2.234 1.809 2.869 3.098l-3.509 1.115a4.511 4.511 0 0 0-1.672-1.689 4.573 4.573 0 0 0-2.328-.606c-.721 0-1.394.143-2.017.426a4.866 4.866 0 0 0-1.623 1.197 5.729 5.729 0 0 0-1.082 1.82c-.262.7-.394 1.476-.394 2.328 0 .831.137 1.601.41 2.312s.645 1.328 1.115 1.852a5.12 5.12 0 0 0 1.639 1.229 4.564 4.564 0 0 0 1.984.443c.437 0 .874-.061 1.312-.181a4.664 4.664 0 0 0 2.147-1.263c.273-.283.476-.59.606-.918l3.541 1.05c-.568 1.29-1.52 2.344-2.853 3.164-1.333.819-2.907 1.229-4.722 1.229-1.333 0-2.547-.241-3.64-.722s-2.027-1.131-2.803-1.951a8.843 8.843 0 0 1-1.804-2.836 9.202 9.202 0 0 1-.636-3.408zM219.98 39.821v-2.787h1.442v2.787h-1.442zM238.439 39.821H236.8v-9.509c0-4.218-1.41-6.328-4.23-6.328-.699 0-1.383.131-2.049.394a6.814 6.814 0 0 0-1.869 1.115 8.044 8.044 0 0 0-1.524 1.688 7.35 7.35 0 0 0-.983 2.083v10.558h-1.64V15.886h1.64v10.951c.699-1.333 1.666-2.394 2.901-3.18 1.234-.787 2.563-1.181 3.983-1.181.94 0 1.749.175 2.427.525s1.24.853 1.688 1.508.775 1.448.983 2.377c.208.929.312 1.973.312 3.131v9.804zM251.128 24.247c-1.53.044-2.868.498-4.017 1.361-1.147.864-1.95 2.049-2.409 3.558v10.656h-1.64v-17.05h1.573v4.197c.591-1.202 1.372-2.181 2.345-2.935s2.017-1.186 3.132-1.295c.218-.022.414-.033.59-.033h.426v1.541z"/></g><g fill="#FFE36C"><path d="M108.237 45.698h-3.154v8.165h-1.51v-8.165h-3.167v-1.323h7.831v1.323zM115.454 53.863h-1.47v-3.915c0-.642-.113-1.116-.34-1.424-.228-.307-.555-.461-.982-.461-.205 0-.41.04-.615.12s-.399.194-.581.341a2.58 2.58 0 0 0-.488.521c-.143.2-.25.421-.321.661v4.156h-1.47v-9.755h1.47v4.169a2.927 2.927 0 0 1 2.592-1.523c.437 0 .795.078 1.076.234.281.155.506.362.675.621.169.259.288.559.354.902.066.343.1.706.1 1.089v4.264zM120.197 53.997a3.725 3.725 0 0 1-1.483-.287 3.433 3.433 0 0 1-1.878-1.931 3.737 3.737 0 0 1-.26-1.39c0-.489.087-.955.26-1.396a3.6 3.6 0 0 1 .735-1.162 3.407 3.407 0 0 1 1.143-.789 3.76 3.76 0 0 1 1.497-.287 3.535 3.535 0 0 1 2.606 1.076c.312.325.55.703.715 1.136a3.768 3.768 0 0 1 .207 1.89h-5.599c.027.313.1.593.22.842.121.25.276.466.468.648s.41.323.655.421.501.146.769.146c.196 0 .39-.024.581-.073.192-.049.368-.12.528-.214.16-.094.303-.207.427-.341.125-.134.223-.28.294-.44l1.256.36c-.241.526-.639.956-1.196 1.29-.557.334-1.205.501-1.945.501zm2.125-4.156a2.343 2.343 0 0 0-.221-.815 2.106 2.106 0 0 0-.461-.635 2.138 2.138 0 0 0-1.444-.553c-.276 0-.537.049-.782.146a2.105 2.105 0 0 0-.648.407 2.022 2.022 0 0 0-.454.635c-.116.25-.188.521-.214.815h4.224zM133.814 46.607a1.98 1.98 0 0 0-.388-.314 3.862 3.862 0 0 0-.595-.314 4.316 4.316 0 0 0-.748-.24 3.686 3.686 0 0 0-.835-.094c-.632 0-1.098.116-1.396.348s-.447.553-.447.962c0 .232.046.421.14.568.093.146.238.276.434.388s.441.209.735.294.637.176 1.029.273c.481.116.916.245 1.303.388.388.143.715.316.982.521s.474.456.621.755c.147.299.221.661.221 1.089 0 .481-.091.896-.274 1.243s-.432.63-.749.849a3.28 3.28 0 0 1-1.102.48 5.643 5.643 0 0 1-1.35.154 6.743 6.743 0 0 1-2.091-.327 5.996 5.996 0 0 1-1.824-.956l.681-1.283c.116.116.283.245.501.388.218.143.472.274.762.395.289.12.603.223.942.308.338.085.69.127 1.056.127.588 0 1.042-.103 1.363-.308.32-.205.481-.508.481-.909 0-.24-.06-.44-.181-.601a1.54 1.54 0 0 0-.514-.421 4.532 4.532 0 0 0-.815-.328 28.06 28.06 0 0 0-1.096-.307 11.22 11.22 0 0 1-1.236-.395 3.079 3.079 0 0 1-.875-.501c-.232-.196-.408-.426-.528-.688s-.18-.581-.18-.955c0-.464.089-.876.267-1.236.178-.361.421-.664.728-.909a3.19 3.19 0 0 1 1.089-.554 4.742 4.742 0 0 1 1.363-.188c.642 0 1.234.103 1.777.308s1.02.459 1.43.762l-.681 1.228zM142.314 53.863h-1.47v-3.915c0-.642-.113-1.116-.34-1.424-.228-.307-.555-.461-.982-.461-.205 0-.41.04-.615.12s-.399.194-.581.341a2.58 2.58 0 0 0-.488.521c-.143.2-.25.421-.321.661v4.156h-1.47v-9.755h1.47v4.169a2.927 2.927 0 0 1 2.592-1.523c.437 0 .795.078 1.076.234.281.155.506.362.675.621.169.259.288.559.354.902.066.343.1.706.1 1.089v4.264zM147.031 53.997a3.645 3.645 0 0 1-1.49-.294 3.476 3.476 0 0 1-1.129-.789 3.467 3.467 0 0 1-.722-1.155 3.834 3.834 0 0 1-.254-1.384c0-.48.084-.941.254-1.383a3.42 3.42 0 0 1 .728-1.155 3.55 3.55 0 0 1 1.136-.789 3.613 3.613 0 0 1 1.477-.294c.543 0 1.036.099 1.477.294a3.56 3.56 0 0 1 1.136.789c.316.329.559.715.729 1.155.169.441.253.902.253 1.383s-.084.942-.253 1.384c-.169.44-.412.826-.729 1.155a3.55 3.55 0 0 1-1.136.789 3.62 3.62 0 0 1-1.477.294zm-2.085-3.608c0 .339.054.65.161.936s.254.532.441.742c.187.209.408.374.662.494s.528.181.822.181.568-.061.822-.181.474-.287.662-.501c.187-.214.334-.464.441-.749.107-.284.16-.597.16-.936 0-.329-.053-.639-.16-.929a2.403 2.403 0 0 0-.441-.755c-.188-.214-.408-.381-.662-.501a1.9 1.9 0 0 0-1.631.007c-.254.125-.475.294-.662.508s-.336.466-.448.755c-.112.29-.167.6-.167.929zM155.729 48.144c-.57.019-1.075.149-1.517.395-.44.245-.755.595-.942 1.049v4.276h-1.47v-6.989h1.363v1.563c.24-.48.555-.866.942-1.155.387-.29.804-.448 1.249-.475h.221c.058 0 .108.005.153.014v1.322zM160.554 53.503a7.57 7.57 0 0 1-.774.3c-.33.111-.682.167-1.057.167-.231 0-.449-.031-.654-.093a1.6 1.6 0 0 1-.541-.281 1.279 1.279 0 0 1-.368-.487 1.788 1.788 0 0 1-.133-.729v-4.37h-.923v-1.136h.923v-2.298h1.47v2.298h1.523v1.136h-1.523v3.902c.018.25.096.43.233.541.139.112.31.167.515.167s.401-.035.588-.106a4.54 4.54 0 0 0 .414-.174l.307 1.163zM164.429 53.997c-.543 0-1.038-.096-1.483-.287s-.826-.452-1.143-.782c-.316-.329-.561-.713-.734-1.149s-.261-.899-.261-1.39c0-.489.087-.955.261-1.396.174-.44.418-.828.734-1.162s.697-.597 1.143-.789a3.76 3.76 0 0 1 1.497-.287 3.535 3.535 0 0 1 2.606 1.076c.313.325.55.703.715 1.136a3.769 3.769 0 0 1 .234 1.657c-.009.093-.019.171-.026.233h-5.6c.026.313.101.593.221.842.12.25.275.466.468.648a2.05 2.05 0 0 0 1.423.567c.196 0 .39-.024.581-.073s.368-.12.528-.214.303-.207.428-.341c.124-.134.223-.28.294-.44l1.256.36c-.24.526-.64.956-1.196 1.29s-1.207.501-1.946.501zm2.125-4.156a2.343 2.343 0 0 0-.221-.815 2.09 2.09 0 0 0-.461-.635 2.069 2.069 0 0 0-.654-.407c-.25-.098-.513-.146-.789-.146a2.101 2.101 0 0 0-1.429.553 1.99 1.99 0 0 0-.454.635c-.116.25-.188.521-.214.815h4.222zM171.619 53.997c-.562 0-1.12-.092-1.677-.274s-1.036-.442-1.437-.781l.588-.936c.419.303.833.532 1.242.688.41.155.829.233 1.257.233.437 0 .781-.084 1.035-.254a.816.816 0 0 0 .381-.722c0-.294-.143-.508-.428-.642-.285-.133-.73-.28-1.336-.44a17.462 17.462 0 0 1-1.123-.334 2.87 2.87 0 0 1-.761-.374 1.32 1.32 0 0 1-.428-.495 1.562 1.562 0 0 1-.134-.682c0-.355.068-.672.207-.948a2.04 2.04 0 0 1 .574-.702 2.58 2.58 0 0 1 .862-.434 3.698 3.698 0 0 1 1.069-.147c.525 0 1.016.08 1.47.24.454.161.859.393 1.216.695l-.628.882c-.65-.517-1.341-.775-2.071-.775-.374 0-.688.078-.942.234s-.381.403-.381.741c0 .143.027.264.08.361.054.098.141.183.261.254s.276.136.468.193c.191.059.43.123.715.194.473.115.88.231 1.223.347.343.116.626.252.849.408s.388.339.495.548c.106.209.16.461.16.755 0 .668-.252 1.196-.755 1.584-.503.389-1.187.583-2.051.583zM179.463 53.503a7.57 7.57 0 0 1-.774.3c-.33.111-.682.167-1.057.167-.231 0-.449-.031-.654-.093a1.6 1.6 0 0 1-.541-.281 1.279 1.279 0 0 1-.368-.487 1.788 1.788 0 0 1-.133-.729v-4.37h-.923v-1.136h.923v-2.298h1.47v2.298h1.523v1.136h-1.523v3.902c.018.25.096.43.233.541.139.112.31.167.515.167s.401-.035.588-.106a4.54 4.54 0 0 0 .414-.174l.307 1.163zM186.612 44.415h1.417l1.162 3.221 1.176-3.221h1.403l-1.617 4.224 1.417 3.487 2.953-7.751h1.644l-3.915 9.488h-1.283l-1.764-4.25-1.777 4.25h-1.283l-3.915-9.488h1.63l2.967 7.751 1.417-3.487-1.632-4.224zM198.158 53.997a2.61 2.61 0 0 1-.942-.167 2.288 2.288 0 0 1-.748-.461c-.209-.196-.374-.428-.494-.695s-.181-.557-.181-.868c0-.33.071-.628.214-.896s.346-.499.608-.695c.263-.195.574-.348.936-.454.36-.106.759-.16 1.195-.16a5.475 5.475 0 0 1 1.845.32v-.48c0-.517-.147-.92-.441-1.21-.294-.289-.717-.435-1.27-.435-.374 0-.741.069-1.103.208-.36.138-.732.336-1.115.595l-.455-.936c.9-.606 1.836-.909 2.807-.909.962 0 1.711.245 2.245.735s.802 1.193.802 2.111v2.525c0 .313.129.473.388.481v1.256a3.41 3.41 0 0 1-.668.067c-.285 0-.506-.07-.662-.214a.91.91 0 0 1-.287-.548l-.04-.44c-.312.41-.697.724-1.156.942-.46.219-.952.328-1.478.328zm.402-1.083c.356 0 .692-.064 1.009-.193s.563-.31.741-.541c.188-.16.281-.33.281-.508v-.922a4.434 4.434 0 0 0-.795-.228 4.348 4.348 0 0 0-.822-.08c-.525 0-.955.113-1.29.341-.334.227-.501.527-.501.902 0 .347.129.639.388.875s.587.354.989.354zM203.771 55.507c.134.026.266.049.395.067.129.018.234.026.314.026a.594.594 0 0 0 .301-.073.927.927 0 0 0 .26-.261c.09-.125.181-.301.274-.528.094-.227.202-.519.327-.875l-2.873-6.989h1.51l2.165 5.693 1.925-5.693h1.39l-3.167 8.606c-.143.4-.39.737-.742 1.009-.352.271-.804.407-1.356.407a2.272 2.272 0 0 1-.722-.107v-1.282zM217.402 53.503a7.57 7.57 0 0 1-.774.3c-.33.111-.682.167-1.057.167-.231 0-.449-.031-.654-.093a1.6 1.6 0 0 1-.541-.281 1.279 1.279 0 0 1-.368-.487 1.788 1.788 0 0 1-.133-.729v-4.37h-.923v-1.136h.923v-2.298h1.47v2.298h1.523v1.136h-1.523v3.902c.018.25.096.43.233.541.139.112.31.167.515.167s.401-.035.588-.106a4.54 4.54 0 0 0 .414-.174l.307 1.163zM221.251 53.997a3.645 3.645 0 0 1-1.49-.294 3.486 3.486 0 0 1-1.129-.789 3.451 3.451 0 0 1-.722-1.155 3.812 3.812 0 0 1-.254-1.384c0-.48.084-.941.254-1.383.169-.44.412-.826.729-1.155.315-.33.694-.593 1.136-.789a3.61 3.61 0 0 1 1.477-.294 3.62 3.62 0 0 1 1.477.294 3.56 3.56 0 0 1 1.136.789c.316.329.559.715.729 1.155.169.441.254.902.254 1.383s-.085.942-.254 1.384c-.17.44-.412.826-.729 1.155-.316.33-.694.593-1.136.789a3.628 3.628 0 0 1-1.478.294zm-2.085-3.608c0 .339.054.65.16.936.107.285.254.532.441.742.188.209.407.374.661.494s.528.181.822.181.567-.061.821-.181.475-.287.662-.501c.187-.214.334-.464.44-.749a2.64 2.64 0 0 0 .161-.936c0-.329-.054-.639-.161-.929a2.4 2.4 0 0 0-.44-.755c-.188-.214-.408-.381-.662-.501a1.896 1.896 0 0 0-1.63.007 2.09 2.09 0 0 0-.661.508 2.477 2.477 0 0 0-.448.755 2.6 2.6 0 0 0-.166.929zM233.077 53.503a7.57 7.57 0 0 1-.774.3c-.33.111-.682.167-1.057.167-.231 0-.449-.031-.654-.093a1.6 1.6 0 0 1-.541-.281 1.279 1.279 0 0 1-.368-.487 1.788 1.788 0 0 1-.133-.729v-4.37h-.923v-1.136h.923v-2.298h1.47v2.298h1.523v1.136h-1.523v3.902c.018.25.096.43.233.541.139.112.31.167.515.167s.401-.035.588-.106a4.54 4.54 0 0 0 .414-.174l.307 1.163zM240.227 53.863h-1.47v-3.915c0-.642-.114-1.116-.341-1.424-.228-.307-.555-.461-.982-.461-.205 0-.41.04-.614.12-.205.08-.399.194-.582.341-.183.147-.345.321-.487.521s-.25.421-.321.661v4.156h-1.47v-9.755h1.47v4.169a2.925 2.925 0 0 1 2.593-1.523c.437 0 .795.078 1.076.234.28.155.505.362.675.621.169.259.287.559.354.902.067.343.101.706.101 1.089v4.264zM244.971 53.997c-.543 0-1.038-.096-1.483-.287s-.826-.452-1.143-.782c-.316-.329-.561-.713-.734-1.149s-.261-.899-.261-1.39c0-.489.087-.955.261-1.396.174-.44.418-.828.734-1.162s.697-.597 1.143-.789a3.76 3.76 0 0 1 1.497-.287 3.535 3.535 0 0 1 2.606 1.076c.313.325.55.703.715 1.136a3.769 3.769 0 0 1 .234 1.657c-.009.093-.019.171-.026.233h-5.6c.026.313.101.593.221.842.12.25.275.466.468.648a2.05 2.05 0 0 0 1.423.567c.196 0 .39-.024.581-.073s.368-.12.528-.214.303-.207.428-.341c.124-.134.223-.28.294-.44l1.256.36c-.24.526-.64.956-1.196 1.29s-1.207.501-1.946.501zm2.125-4.156a2.343 2.343 0 0 0-.221-.815 2.09 2.09 0 0 0-.461-.635 2.069 2.069 0 0 0-.654-.407c-.25-.098-.513-.146-.789-.146a2.101 2.101 0 0 0-1.429.553 1.99 1.99 0 0 0-.454.635c-.116.25-.188.521-.214.815h4.222zM255.354 44.375h1.31l3.741 9.488h-1.576l-1.003-2.579h-3.661l-.989 2.579h-1.59l3.768-9.488zm2.178 5.8l-1.523-4.075-1.577 4.075h3.1zM263.907 53.997c-.473 0-.909-.096-1.31-.287a3.262 3.262 0 0 1-1.043-.782 3.618 3.618 0 0 1-.688-1.156 4.023 4.023 0 0 1-.247-1.423c0-.489.077-.951.233-1.383.156-.433.374-.813.655-1.143.28-.33.609-.59.988-.782a2.736 2.736 0 0 1 1.25-.287c.561 0 1.056.136 1.483.407a2.97 2.97 0 0 1 1.002 1.036v-4.089h1.47v8.018c0 .169.029.29.087.361s.162.111.314.12v1.256a5.412 5.412 0 0 1-.368.054 2.477 2.477 0 0 1-.233.013c-.294 0-.535-.075-.722-.227a.801.801 0 0 1-.308-.588l-.026-.521a2.79 2.79 0 0 1-1.056 1.029 2.977 2.977 0 0 1-1.481.374zm.361-1.256c.214 0 .428-.036.642-.107s.41-.169.588-.294c.179-.125.332-.271.461-.441.129-.169.221-.352.274-.548v-1.83a2.182 2.182 0 0 0-.341-.615 2.394 2.394 0 0 0-1.096-.788 1.969 1.969 0 0 0-.635-.107c-.294 0-.563.067-.809.201s-.457.312-.635.534c-.179.223-.318.477-.421.762s-.153.579-.153.882a2.462 2.462 0 0 0 .628 1.657c.195.214.421.383.675.508s.528.186.822.186zM273.368 48.144c-.57.019-1.075.149-1.517.395-.44.245-.755.595-.942 1.049v4.276h-1.47v-6.989h1.363v1.563c.24-.48.555-.866.942-1.155.387-.29.804-.448 1.249-.475h.221c.058 0 .108.005.153.014v1.322zM274.304 45.725v-1.616h1.47v1.616h-1.47zm0 8.138v-6.989h1.47v6.989h-1.47zM279.262 53.997a2.61 2.61 0 0 1-.942-.167 2.288 2.288 0 0 1-.748-.461c-.209-.196-.374-.428-.494-.695s-.181-.557-.181-.868c0-.33.071-.628.214-.896s.346-.499.608-.695c.263-.195.574-.348.936-.454.36-.106.759-.16 1.195-.16a5.475 5.475 0 0 1 1.845.32v-.48c0-.517-.147-.92-.441-1.21-.294-.289-.717-.435-1.27-.435-.374 0-.741.069-1.103.208-.36.138-.732.336-1.115.595l-.455-.936c.9-.606 1.836-.909 2.807-.909.962 0 1.711.245 2.245.735s.802 1.193.802 2.111v2.525c0 .313.129.473.388.481v1.256a3.41 3.41 0 0 1-.668.067c-.285 0-.506-.07-.662-.214a.91.91 0 0 1-.287-.548l-.04-.44c-.312.41-.697.724-1.156.942a3.398 3.398 0 0 1-1.478.328zm.401-1.083c.356 0 .692-.064 1.009-.193s.563-.31.741-.541c.188-.16.281-.33.281-.508v-.922a4.434 4.434 0 0 0-.795-.228 4.348 4.348 0 0 0-.822-.08c-.525 0-.955.113-1.29.341-.334.227-.501.527-.501.902 0 .347.129.639.388.875s.588.354.989.354zM288.643 53.503a7.57 7.57 0 0 1-.774.3c-.33.111-.682.167-1.057.167-.231 0-.449-.031-.654-.093a1.6 1.6 0 0 1-.541-.281 1.279 1.279 0 0 1-.368-.487 1.788 1.788 0 0 1-.133-.729v-4.37h-.923v-1.136h.923v-2.298h1.47v2.298h1.523v1.136h-1.523v3.902c.018.25.096.43.233.541.139.112.31.167.515.167s.401-.035.588-.106a4.54 4.54 0 0 0 .414-.174l.307 1.163zM289.524 45.725v-1.616h1.47v1.616h-1.47zm0 8.138v-6.989h1.47v6.989h-1.47zM292.17 50.362c0-.49.084-.953.254-1.39a3.41 3.41 0 0 1 1.872-1.931 3.758 3.758 0 0 1 1.496-.287c.722 0 1.343.158 1.864.475s.911.737 1.17 1.263l-1.431.454a1.831 1.831 0 0 0-.682-.688 1.858 1.858 0 0 0-.948-.248 1.97 1.97 0 0 0-1.483.662 2.322 2.322 0 0 0-.441.741c-.106.285-.16.602-.16.949 0 .339.056.652.167.942.111.289.263.541.454.755.192.214.415.381.669.501s.522.181.809.181c.178 0 .355-.024.534-.074a1.9 1.9 0 0 0 .875-.515c.111-.115.194-.24.247-.374l1.443.428c-.231.526-.619.956-1.162 1.29-.544.334-1.186.501-1.925.501a3.659 3.659 0 0 1-1.483-.294 3.501 3.501 0 0 1-1.877-1.951 3.734 3.734 0 0 1-.262-1.39z"/></g><g fill="#FFF"><path d="M69.966 55.545c-11.857 0-21.504-9.646-21.504-21.503s9.646-21.503 21.504-21.503 21.505 9.646 21.505 21.503-9.647 21.503-21.505 21.503z"/><path d="M69.966 13.56c11.313 0 20.483 9.17 20.483 20.482s-9.17 20.483-20.483 20.483c-11.312 0-20.483-9.171-20.483-20.482 0-11.312 9.171-20.483 20.483-20.483m0-2.043c-12.42 0-22.526 10.105-22.526 22.525 0 12.419 10.105 22.525 22.526 22.525s22.527-10.104 22.527-22.525-10.106-22.525-22.527-22.525z"/></g><path fill="#FF9C1A" d="M78.525 21.837c2.967-.327 5.589-.14 8.066.251-3.443-4.781-8.894-8.016-15.118-8.468a28.077 28.077 0 0 1 7.052 8.217zM89.729 28.657a20.526 20.526 0 0 0-1.28-3.458c-2.984-.581-5.847-1.43-9.086-1.773a27.455 27.455 0 0 1 1.349 3.349c3.098.511 6.027 1.261 9.017 1.882zM90.449 34.04c0-.77-.047-1.531-.13-2.282a43.024 43.024 0 0 1-6.131-.698 68.52 68.52 0 0 1-2.519-.531 27.76 27.76 0 0 1 .385 3.076c2.757.583 5.501 1.164 8.365 1.543.021-.368.03-.736.03-1.108z"/><path fill="#2272B6" d="M90.03 38.178a48.806 48.806 0 0 1-8.001-.32 27.815 27.815 0 0 1-6.702 15.954c7.406-2.004 13.148-8.055 14.703-15.634z"/><path fill="#FEAF4E" d="M64.278 14.366a37.97 37.97 0 0 1 6.869 11.919c3.489-.268 6.609-.001 9.564.489a27.55 27.55 0 0 0-1.349-3.349 25.538 25.538 0 0 0-8.269.447c-1.134.247.565-.365.75-.424 1.13-.396 2.407-.845 3.713-1.125a29.028 29.028 0 0 1 2.97-.486 28.075 28.075 0 0 0-7.052-8.217 20.824 20.824 0 0 0-1.506-.061 20.56 20.56 0 0 0-5.69.807zM71.843 28.478c.318 1.115.589 2.254.807 3.41 3.256.406 6.338 1.06 9.405 1.717a27.79 27.79 0 0 0-.385-3.076c-3.202-.727-6.349-1.602-9.827-2.051z"/><path fill="#4499E3" d="M73.207 36.212c.063.901.108 1.812.108 2.728 0 .324-.017.64-.026.963 1.854.646 3.979 1.433 2.209.938a34.3 34.3 0 0 0-2.218-.536 37.766 37.766 0 0 1-3.313 14.22c1.857 0 3.654-.248 5.361-.713a27.825 27.825 0 0 0 6.702-15.954 58.345 58.345 0 0 1-3.125-.45c-1.927-.34-3.809-.765-5.698-1.196z"/><linearGradient id="a" x1="320.322" x2="343.489" y1="-203.902" y2="-203.902" gradientTransform="matrix(1 0 0 -1 -270.84 -179.266)" gradientUnits="userSpaceOnUse"><stop offset="0" stop-color="#ff9c1a"/><stop offset=".066" stop-color="#ffa524"/><stop offset=".245" stop-color="#ffb93a"/><stop offset=".443" stop-color="#ffc749"/><stop offset=".672" stop-color="#ffcf52"/><stop offset="1" stop-color="#ffd255"/></linearGradient><path fill="url(#a)" d="M60.679 28.884c-1.477.304.743-.464.978-.544 1.477-.489 3.135-1.055 4.834-1.4a37.53 37.53 0 0 1 4.656-.655 37.96 37.96 0 0 0-6.869-11.919C55.737 16.83 49.483 24.705 49.483 34.04c0 .291.013.582.025.868a25.597 25.597 0 0 1 1.471-.557c1.817-.631 3.858-1.353 5.953-1.805 5.955-1.287 11.021-1.238 15.718-.658a38.096 38.096 0 0 0-.807-3.41c-3.309-.425-6.915-.461-11.164.406z"/><linearGradient id="b" x1="321.925" x2="344.119" y1="-226.334" y2="-226.334" gradientTransform="matrix(1 0 0 -1 -270.84 -179.266)" gradientUnits="userSpaceOnUse"><stop offset="0" stop-color="#4499e3"/><stop offset=".13" stop-color="#469fe8"/><stop offset=".619" stop-color="#4daef7"/><stop offset="1" stop-color="#4fb4fc"/></linearGradient><path fill="url(#b)" d="M51.085 41.932a20.51 20.51 0 0 0 2.081 3.804c4.688-1.499 9.025-1.931 14.555-1.259.767.095 6.085 1.091 3.782.813-6.946-.841-11.687.932-16.498 2.708 3.741 4.007 9.052 6.526 14.962 6.526a37.808 37.808 0 0 0 3.313-14.219c-8.81-1.866-15.049.508-22.195 1.627z"/><linearGradient id="c" x1="320.352" x2="344.154" y1="-216.253" y2="-216.253" gradientTransform="matrix(1 0 0 -1 -270.84 -179.266)" gradientUnits="userSpaceOnUse"><stop offset="0" stop-color="#4499e3"/><stop offset=".13" stop-color="#469fe8"/><stop offset=".619" stop-color="#4daef7"/><stop offset="1" stop-color="#4fb4fc"/></linearGradient><path fill="url(#c)" d="M49.78 35.03c-.105.023-.19.041-.269.053.066 1.299.258 2.561.554 3.782a80.314 80.314 0 0 1 3.717-.735c5.851-.968 11.042-.71 17.468 1.094.285.076 1.13.36 2.038.679.009-.323.026-.639.026-.962 0-.917-.044-1.826-.108-2.729-6.886-1.574-13.881-3.241-23.426-1.182z"/></svg>